<?xml version="1.0" standalone="no"?>
<svg xmlns:xlink="http://www.w3.org/1999/xlink" id="wave" style="transform:rotate(0deg); transition: 0.3s" viewBox="0 0 1440 110" version="1.1" xmlns="http://www.w3.org/2000/svg"><defs><linearGradient id="sw-gradient-0" x1="0" x2="0" y1="1" y2="0"><stop stop-color="rgba(81.881, 0, 255, 1)" offset="0%"/><stop stop-color="rgba(228.726, 0, 255, 1)" offset="100%"/></linearGradient></defs><path style="transform:translate(0, 0px); opacity:1" fill="url(#sw-gradient-0)" d="M0,55L16,58.7C32,62,64,70,96,67.8C128,66,160,55,192,51.3C224,48,256,51,288,60.5C320,70,352,84,384,84.3C416,84,448,70,480,64.2C512,59,544,62,576,62.3C608,62,640,59,672,49.5C704,40,736,26,768,23.8C800,22,832,33,864,45.8C896,59,928,73,960,77C992,81,1024,73,1056,69.7C1088,66,1120,66,1152,67.8C1184,70,1216,73,1248,69.7C1280,66,1312,55,1344,51.3C1376,48,1408,51,1440,58.7C1472,66,1504,77,1536,82.5C1568,88,1600,88,1632,78.8C1664,70,1696,51,1728,47.7C1760,44,1792,55,1824,58.7C1856,62,1888,59,1920,53.2C1952,48,1984,40,2016,31.2C2048,22,2080,11,2112,9.2C2144,7,2176,15,2208,29.3C2240,44,2272,66,2288,77L2304,88L2304,110L2288,110C2272,110,2240,110,2208,110C2176,110,2144,110,2112,110C2080,110,2048,110,2016,110C1984,110,1952,110,1920,110C1888,110,1856,110,1824,110C1792,110,1760,110,1728,110C1696,110,1664,110,1632,110C1600,110,1568,110,1536,110C1504,110,1472,110,1440,110C1408,110,1376,110,1344,110C1312,110,1280,110,1248,110C1216,110,1184,110,1152,110C1120,110,1088,110,1056,110C1024,110,992,110,960,110C928,110,896,110,864,110C832,110,800,110,768,110C736,110,704,110,672,110C640,110,608,110,576,110C544,110,512,110,480,110C448,110,416,110,384,110C352,110,320,110,288,110C256,110,224,110,192,110C160,110,128,110,96,110C64,110,32,110,16,110L0,110Z"/></svg>