<?xml version="1.0" standalone="no"?><svg xmlns="http://www.w3.org/2000/svg" viewBox="0 0 1440 320"><path fill="#0099ff" fill-opacity="1" d="M0,192L24,165.3C48,139,96,85,144,85.3C192,85,240,139,288,165.3C336,192,384,192,432,192C480,192,528,192,576,160C624,128,672,64,720,32C768,0,816,0,864,5.3C912,11,960,21,1008,37.3C1056,53,1104,75,1152,117.3C1200,160,1248,224,1296,240C1344,256,1392,224,1416,208L1440,192L1440,320L1416,320C1392,320,1344,320,1296,320C1248,320,1200,320,1152,320C1104,320,1056,320,1008,320C960,320,912,320,864,320C816,320,768,320,720,320C672,320,624,320,576,320C528,320,480,320,432,320C384,320,336,320,288,320C240,320,192,320,144,320C96,320,48,320,24,320L0,320Z"></path></svg>